<svg width="74" height="74" viewBox="0 0 74 74" fill="none" xmlns="http://www.w3.org/2000/svg">
<path d="M66.0528 36.3047C65.9547 29.3358 60.2549 23.6973 53.2632 23.6973C51.6859 23.6973 50.1212 23.9915 48.6576 24.5565C47.5312 21.1408 45.4215 18.0753 42.6007 15.7946C39.2692 13.1012 35.0708 11.6178 30.7788 11.6178C20.6753 11.6178 12.4058 19.6224 11.9788 29.6227C8.76329 30.5753 5.86854 32.5003 3.73691 35.124C1.32717 38.0901 0 41.8318 0 45.6602C0 54.8808 7.50119 62.3822 16.7217 62.3822H60.3353C67.87 62.3822 73.9998 56.2522 74 48.7173C74 43.3812 70.8463 38.5179 66.0528 36.3047ZM60.3353 59.5109H16.7217C9.08446 59.5109 2.87101 53.2975 2.87101 45.6602C2.87101 42.4893 3.96985 39.3905 5.96539 36.9346C7.93338 34.5125 10.6844 32.8092 13.7114 32.1385C14.3777 31.9909 14.8477 31.3949 14.8363 30.713L14.8355 30.6657C14.8341 30.5891 14.8326 30.5124 14.8326 30.4354C14.8326 21.6427 21.986 14.489 30.7788 14.489C34.4686 14.489 37.9324 15.7127 40.7956 18.0275C43.578 20.2768 45.5435 23.4252 46.3297 26.8922C46.43 27.3336 46.7325 27.702 47.1461 27.8862C47.5601 28.0703 48.0359 28.0485 48.4309 27.8272C49.9021 27.0038 51.5732 26.5686 53.2632 26.5686C58.7331 26.5686 63.1832 31.0186 63.1832 36.4885C63.1832 36.6872 63.1751 36.8988 63.1581 37.1549C63.1158 37.7887 63.4953 38.3751 64.0908 38.5962C68.3005 40.159 71.1288 44.2262 71.1288 48.7175C71.1288 54.6691 66.2869 59.5109 60.3353 59.5109Z" fill="#384764"/>
</svg>
