<svg width="46" height="46" viewBox="0 0 46 46" fill="none" xmlns="http://www.w3.org/2000/svg">
<path d="M39.0766 28.2556C39.0499 26.3624 38.3231 24.6363 37.1456 23.3217C37.4594 22.3605 37.6199 21.358 37.6199 20.3331C37.6199 15.0191 33.2972 10.6959 27.9837 10.6959C27.2099 10.6959 26.4396 10.788 25.6943 10.9697C25.2387 11.0808 24.9593 11.5403 25.0703 11.9959C25.1814 12.4516 25.6411 12.731 26.0965 12.6198C26.7102 12.4703 27.3451 12.3944 27.9836 12.3944C32.3604 12.3944 35.9213 15.9557 35.9213 20.3331C35.9213 20.9281 35.8551 21.5134 35.7267 22.0841C34.521 21.272 33.0701 20.7972 31.5102 20.7972C30.5771 20.7972 29.6514 20.9712 28.7855 21.3054C28.1191 19.2847 26.8712 17.4712 25.2022 16.1219C23.2314 14.5285 20.7476 13.6509 18.2085 13.6509C12.2312 13.6509 7.33903 18.3864 7.08641 24.3026C5.18433 24.8661 3.4717 26.005 2.21063 27.557C0.785152 29.3115 0 31.5252 0 33.7901C0 39.2448 4.43779 43.6826 9.89253 43.6826H35.6942C40.1516 43.6826 43.778 40.0562 43.778 35.5987C43.778 32.4423 41.9122 29.5651 39.0766 28.2556ZM35.6942 41.9841H9.89253C5.37434 41.9841 1.69848 38.3083 1.69848 33.7901C1.69848 31.9141 2.34855 30.0808 3.52899 28.6279C4.69313 27.1951 6.32062 26.1874 8.1115 25.7905C8.50577 25.7032 8.78399 25.3502 8.77685 24.9464L8.77651 24.9248C8.77561 24.8776 8.7747 24.8305 8.7747 24.7831C8.7747 19.5812 13.0068 15.3493 18.2085 15.3493C20.3914 15.3493 22.4406 16.0732 24.1344 17.4425C25.7804 18.7732 26.9433 20.6358 27.4084 22.6869C27.4676 22.9481 27.6467 23.1659 27.8913 23.2749C28.1363 23.3838 28.4176 23.3709 28.6515 23.24C29.5218 22.7529 30.5103 22.4954 31.5102 22.4954C34.7462 22.4954 37.3788 25.128 37.3788 28.364C37.3788 28.4804 37.3741 28.6056 37.3639 28.7581C37.3389 29.1332 37.5634 29.48 37.9157 29.6109C40.4061 30.5354 42.0793 32.9417 42.0793 35.5986C42.0796 39.1197 39.2151 41.9841 35.6942 41.9841Z" fill="#384764"/>
<path d="M22.5417 13.2052C22.5517 13.2288 22.5477 13.2193 22.5428 13.2076C22.7461 13.6846 23.3385 13.8731 23.7798 13.5967C24.2377 13.3099 24.2976 12.6612 23.9265 12.2789C23.6334 11.9939 23.1741 11.9494 22.8371 12.1856C22.5157 12.411 22.3925 12.841 22.5411 13.2035C22.5361 13.1912 22.5313 13.1802 22.5417 13.2052Z" fill="#384764"/>
<path d="M27.9843 8.95271C28.4534 8.95271 28.8336 8.57247 28.8336 8.10346V3.16665C28.8336 2.69765 28.4534 2.31741 27.9843 2.31741C27.5152 2.31741 27.1351 2.69765 27.1351 3.16665V8.10346C27.1351 8.57247 27.5153 8.95271 27.9843 8.95271Z" fill="#384764"/>
<path d="M36.6318 12.5347C36.8491 12.5347 37.0665 12.4518 37.2323 12.2859L40.7233 8.79508C41.055 8.46342 41.055 7.9258 40.7234 7.59414C40.3917 7.26248 39.854 7.26248 39.5224 7.59414L36.0315 11.085C35.6997 11.4166 35.6997 11.9543 36.0314 12.2859C36.1972 12.4518 36.4144 12.5347 36.6318 12.5347Z" fill="#384764"/>
<path d="M45.1508 19.4836H40.2139C39.7447 19.4836 39.3646 19.8639 39.3646 20.3329C39.3646 20.8019 39.7447 21.1821 40.2139 21.1821H45.1508C45.6199 21.1821 46 20.8019 46 20.3329C46 19.8639 45.6198 19.4836 45.1508 19.4836Z" fill="#384764"/>
<path d="M18.7363 12.2858C18.902 12.4516 19.1194 12.5346 19.3367 12.5346C19.554 12.5346 19.7714 12.4517 19.9372 12.2858C20.2689 11.9542 20.2689 11.4164 19.9372 11.0849L16.4463 7.59403C16.1146 7.26238 15.5769 7.26238 15.2453 7.59403C14.9137 7.92569 14.9137 8.46343 15.2453 8.79497L18.7363 12.2858Z" fill="#384764"/>
</svg>
