<svg width="46" height="46" viewBox="0 0 46 46" fill="none" xmlns="http://www.w3.org/2000/svg">
<g clip-path="url(#clip0_4_126)">
<path d="M36.8724 11.671C36.3989 5.15852 30.7604 0 23.897 0C18.4519 0 13.6544 3.21939 11.7407 8.08055C11.6071 8.07577 11.473 8.0735 11.3382 8.0735C5.15497 8.0735 0.124756 13.1037 0.124756 19.2869C0.124756 25.4701 5.15497 30.5003 11.3382 30.5003C11.4551 30.5003 11.5716 30.4985 11.6881 30.495C11.7205 30.4985 11.7535 30.5003 11.7867 30.5003H36.9046C36.9695 30.5003 37.0334 30.4932 37.095 30.4794C42.0306 30.1491 45.8752 26.0492 45.8752 21.0811C45.8749 16.0268 41.8737 11.8896 36.8724 11.671ZM36.8553 28.6955C36.8233 28.6973 36.7914 28.7008 36.7602 28.7061H11.9205C11.8649 28.6983 11.8076 28.692 11.7522 28.6973C11.6151 28.7025 11.4768 28.7061 11.3379 28.7061C6.14416 28.7061 1.91873 24.4809 1.91873 19.2869C1.91873 14.0932 6.14416 9.86773 11.3379 9.86773C11.6511 9.86773 11.9613 9.88307 12.2665 9.91276C12.6813 9.95754 13.0743 9.69993 13.2061 9.30143C14.6894 4.8111 18.9855 1.79422 23.897 1.79422C30.0801 1.79422 35.1104 6.62343 35.1104 12.5704C35.1104 12.8162 35.211 13.0509 35.3893 13.2204C35.5672 13.39 35.8042 13.4869 36.0525 13.4662C36.1861 13.4597 36.3202 13.4562 36.456 13.4562C40.6606 13.4562 44.081 16.8766 44.081 21.0811C44.081 25.1423 40.9071 28.488 36.8553 28.6955Z" fill="#384764"/>
<path d="M18.7125 32.6666C18.2816 32.4178 17.7344 32.566 17.4869 32.9952L15.4169 36.5808C15.1694 37.01 15.3163 37.5584 15.7455 37.8065C15.8869 37.888 16.0411 37.9265 16.193 37.9265C16.5032 37.9265 16.8044 37.7652 16.9709 37.4779L19.0408 33.8923C19.2886 33.4628 19.1417 32.9144 18.7125 32.6666Z" fill="#384764"/>
<path d="M18.7125 40.7401C18.2816 40.492 17.7344 40.6402 17.4869 41.0686L15.4169 44.6543C15.1694 45.0835 15.3163 45.6319 15.7455 45.88C15.8869 45.9615 16.0411 46 16.193 46C16.5032 46 16.8044 45.8387 16.9709 45.5514L19.0408 41.9658C19.2886 41.5366 19.1417 40.9881 18.7125 40.7401Z" fill="#384764"/>
<path d="M24.0949 32.6666C23.6642 32.4178 23.1173 32.566 22.8693 32.9952L20.7993 36.5808C20.5518 37.01 20.6987 37.5584 21.1279 37.8065C21.2693 37.888 21.4235 37.9265 21.5754 37.9265C21.8856 37.9265 22.1867 37.7652 22.3533 37.4779L24.4232 33.8923C24.671 33.4628 24.5241 32.9144 24.0949 32.6666Z" fill="#384764"/>
<path d="M24.0949 40.7401C23.6642 40.492 23.1173 40.6402 22.8693 41.0686L20.7993 44.6543C20.5518 45.0835 20.6987 45.6319 21.1279 45.88C21.2693 45.9615 21.4235 46 21.5754 46C21.8856 46 22.1867 45.8387 22.3533 45.5514L24.4232 41.9658C24.671 41.5366 24.5241 40.9881 24.0949 40.7401Z" fill="#384764"/>
<path d="M29.4774 32.6666C29.0472 32.4178 28.5 32.566 28.2517 32.9952L26.1818 36.5808C25.9342 37.01 26.0811 37.5584 26.5103 37.8065C26.6517 37.888 26.8059 37.9265 26.9579 37.9265C27.2681 37.9265 27.5692 37.7652 27.7357 37.4779L29.8057 33.8923C30.0535 33.4628 29.9066 32.9144 29.4774 32.6666Z" fill="#384764"/>
<path d="M29.4774 40.7401C29.0472 40.492 28.5 40.6402 28.2517 41.0686L26.1818 44.6543C25.9342 45.0835 26.0811 45.6319 26.5103 45.88C26.6517 45.9615 26.8059 46 26.9579 46C27.2681 46 27.5692 45.8387 27.7357 45.5514L29.8057 41.9658C30.0535 41.5366 29.9066 40.9881 29.4774 40.7401Z" fill="#384764"/>
</g>
<defs>
<clipPath id="clip0_4_126">
<rect width="46" height="46" fill="white"/>
</clipPath>
</defs>
</svg>
