<svg width="14" height="14" viewBox="0 0 14 14" fill="none" xmlns="http://www.w3.org/2000/svg">
<g clip-path="url(#clip0_4_34)">
<path d="M13.8235 12.9972L9.80674 8.97756C10.5986 8.02787 11.0749 6.81422 11.0749 5.48868C11.0749 2.4646 8.59309 0.00573826 5.54032 0.00573826C2.48755 0.00573826 0 2.46747 0 5.49155C0 8.51563 2.48181 10.9745 5.53458 10.9745C6.83144 10.9745 8.025 10.5298 8.97182 9.78666L13.003 13.8178C13.2382 14.0531 13.5883 14.0531 13.8235 13.8178C14.0588 13.5825 14.0588 13.2325 13.8235 12.9972ZM1.17635 5.49155C1.17635 3.11589 3.13311 1.18496 5.53458 1.18496C7.93606 1.18496 9.89282 3.11589 9.89282 5.49155C9.89282 7.8672 7.93606 9.79813 5.53458 9.79813C3.13311 9.79813 1.17635 7.86433 1.17635 5.49155Z" fill="#778699"/>
</g>
<defs>
<clipPath id="clip0_4_34">
<rect width="14" height="14" fill="white"/>
</clipPath>
</defs>
</svg>
