<svg width="74" height="25" viewBox="0 0 74 25" fill="none" xmlns="http://www.w3.org/2000/svg">
<path d="M2.86 4.19C3.83 4.19 4.29 4.92 4.29 5.8C4.29 6.64 3.78 7.37 2.86 7.37C1.93 7.37 1.39 6.67 1.39 5.79C1.39 4.9 1.91 4.19 2.86 4.19ZM4.99 2.72C4.89 1.57 4.16 0.909999 2.99 0.909999C0.97 0.909999 0.38 2.76 0.38 4.71C0.38 6.2 0.72 8.12 2.82 8.12C4.61 8.12 5.19 6.77 5.19 5.74C5.19 4.43 4.38 3.44 3.02 3.44C2.25 3.44 1.65 3.72 1.25 4.37L1.23 4.35C1.27 3.26 1.5 1.66 2.95 1.66C3.62 1.66 4.06 2.08 4.14 2.72H4.99Z" fill="#778699"/>
<path d="M44.09 3.28C44.09 4.12 43.53 4.84 42.64 4.84C41.82 4.84 41.24 4.12 41.24 3.34C41.24 2.47 41.62 1.66 42.63 1.66C43.58 1.66 44.09 2.41 44.09 3.28ZM40.49 6.29C40.6 7.51 41.45 8.12 42.64 8.12C44.36 8.12 45.1 6.75 45.1 4.3C45.1 1.62 43.99 0.909999 42.67 0.909999C41.3 0.909999 40.34 1.85 40.34 3.22C40.34 4.62 41.14 5.59 42.58 5.59C43.27 5.59 43.9 5.21 44.22 4.61L44.24 4.63C44.19 6.46 43.68 7.37 42.64 7.37C41.96 7.37 41.4 6.98 41.34 6.29H40.49Z" fill="#778699"/>
<path d="M64.56 16.91H63.91C63.72 17.98 62.84 18.24 61.87 18.24V18.92H63.71V24H64.56V16.91ZM67.8466 19.42C67.8166 18.57 68.2366 17.66 69.2266 17.66C69.9766 17.66 70.5966 18.17 70.5966 18.94C70.5966 19.92 69.9866 20.36 68.7866 21.1C67.7866 21.72 66.9366 22.32 66.7966 24H71.4266V23.25H67.7866C67.9566 22.37 68.8866 21.92 69.7766 21.38C70.6566 20.83 71.4966 20.2 71.4966 18.95C71.4966 17.63 70.5166 16.91 69.2766 16.91C67.7766 16.91 66.9266 17.98 66.9966 19.42H67.8466Z" fill="#778699"/>
</svg>
