<svg width="46" height="46" viewBox="0 0 46 46" fill="none" xmlns="http://www.w3.org/2000/svg">
<g clip-path="url(#clip0_39_2)">
<path d="M38.7922 13.4257C38.6251 13.4257 38.458 13.4313 38.2917 13.4425C37.8285 6.41926 31.9447 0.832779 24.8169 0.832779C18.5826 0.832779 13.2113 5.07441 11.7186 11.0406C10.75 10.6763 9.73015 10.4917 8.67517 10.4917C3.89168 10.4917 0 14.3831 0 19.1659C0 23.9494 3.89168 27.8407 8.67517 27.8407H38.7922C42.7667 27.8407 46 24.607 46 20.6328C46 16.6586 42.7667 13.4257 38.7922 13.4257ZM38.7922 26.4032H8.67517C4.68417 26.4032 1.4375 23.1569 1.4375 19.1659C1.4375 15.1755 4.68417 11.9292 8.67517 11.9292C9.81403 11.9292 10.9034 12.1861 11.9134 12.6936C12.1159 12.7961 12.3546 12.7961 12.5571 12.6943C12.7599 12.5933 12.9028 12.4023 12.9431 12.1791C13.9816 6.43752 18.9753 2.27028 24.8169 2.27028C31.4278 2.27028 36.8408 7.64761 36.8833 14.2582C36.8847 14.4708 36.9802 14.6716 37.1444 14.8077C37.3087 14.9425 37.5252 14.998 37.7333 14.96C38.0787 14.8955 38.4349 14.8632 38.7922 14.8632C41.9738 14.8632 44.5625 17.4511 44.5625 20.6328C44.5625 23.8146 41.9738 26.4032 38.7922 26.4032Z" fill="#384764"/>
<path d="M30.2908 36.5422H27.9525L29.4593 34.9685C29.7337 34.6822 29.724 34.2273 29.4373 33.9522C29.1519 33.6784 28.696 33.6876 28.4212 33.9746L25.9625 36.5422H23.822V34.3069L26.379 31.9524C26.671 31.6836 26.69 31.2288 26.4212 30.9368C26.1523 30.6448 25.6975 30.6265 25.4055 30.8954L23.822 32.3532V30.0735C23.822 29.6761 23.5002 29.3547 23.1033 29.3547C22.7063 29.3547 22.3845 29.6761 22.3845 30.0735V32.4116L20.8115 30.9052C20.5248 30.6301 20.0699 30.6399 19.7952 30.927C19.5207 31.2133 19.5305 31.6682 19.8169 31.9427L22.3845 34.4021V36.5422H19.8559L17.3971 33.9746C17.1227 33.6876 16.6674 33.6784 16.3811 33.9522C16.0944 34.2273 16.0845 34.6822 16.359 34.9685L17.8658 36.5422H15.9158C15.5188 36.5422 15.197 36.8636 15.197 37.261C15.197 37.6582 15.5188 37.9797 15.9158 37.9797H17.8065L16.3492 39.5625C16.0804 39.8552 16.0993 40.3093 16.3913 40.5781C16.5296 40.7059 16.704 40.7683 16.8777 40.7683C17.0717 40.7683 17.2652 40.6905 17.407 40.5367L19.7608 37.9797H22.3845V40.5079L19.8169 42.9681C19.5302 43.2426 19.5207 43.6974 19.7952 43.9838C20.0699 44.2709 20.5248 44.2814 20.8115 44.0056L22.3845 42.4987V44.4485C22.3845 44.8457 22.7063 45.1672 23.1033 45.1672C23.5002 45.1672 23.822 44.8457 23.822 44.4485V42.5572L25.4055 44.0154C25.5434 44.1424 25.7178 44.2056 25.8919 44.2056C26.086 44.2056 26.2794 44.1277 26.4208 43.974C26.69 43.682 26.671 43.2271 26.379 42.9583L23.822 40.6032V37.9797H26.0575L28.4114 40.5367C28.5532 40.6905 28.7465 40.7683 28.9406 40.7683C29.1143 40.7683 29.2891 40.7059 29.427 40.5781C29.719 40.3093 29.738 39.8552 29.4692 39.5625L28.0118 37.9797H30.2908C30.6877 37.9797 31.0095 37.6582 31.0095 37.261C31.0095 36.8636 30.6877 36.5422 30.2908 36.5422Z" fill="#384764"/>
</g>
<defs>
<clipPath id="clip0_39_2">
<rect width="46" height="46" fill="white"/>
</clipPath>
</defs>
</svg>
