<svg width="46" height="46" viewBox="0 0 46 46" fill="none" xmlns="http://www.w3.org/2000/svg">
<g clip-path="url(#clip0_4_88)">
<path d="M23 12.9628C17.4655 12.9628 12.9628 17.4655 12.9628 23C12.9628 28.5345 17.4655 33.0372 23 33.0372C28.5345 33.0372 33.0372 28.5345 33.0372 23C33.0372 17.4655 28.5345 12.9628 23 12.9628ZM23 31.6869C18.2101 31.6869 14.3131 27.7899 14.3131 23C14.3131 18.2101 18.2101 14.3131 23 14.3131C27.79 14.3131 31.6869 18.2101 31.6869 23C31.6869 27.7899 27.79 31.6869 23 31.6869Z" fill="#384764"/>
<path d="M23 10.7123C23.3728 10.7123 23.6751 10.4101 23.6751 10.0372V0.675147C23.6751 0.302196 23.3728 0 23 0C22.6271 0 22.3248 0.302196 22.3248 0.675147V10.0372C22.3248 10.4101 22.6271 10.7123 23 10.7123Z" fill="#384764"/>
<path d="M23 35.2877C22.6271 35.2877 22.3248 35.5899 22.3248 35.9628V45.3249C22.3248 45.6978 22.6271 46 23 46C23.3728 46 23.6751 45.6978 23.6751 45.3249V35.9628C23.6751 35.5899 23.3728 35.2877 23 35.2877Z" fill="#384764"/>
<path d="M45.3248 22.3249H35.9628C35.5899 22.3249 35.2877 22.6271 35.2877 23C35.2877 23.373 35.5899 23.6752 35.9628 23.6752H45.3248C45.6977 23.6752 46 23.373 46 23C46 22.6271 45.6977 22.3249 45.3248 22.3249Z" fill="#384764"/>
<path d="M10.7123 23C10.7123 22.6271 10.41 22.3249 10.0372 22.3249H0.675147C0.302286 22.3249 0 22.6271 0 23C0 23.373 0.302286 23.6752 0.675147 23.6752H10.0372C10.41 23.6752 10.7123 23.373 10.7123 23Z" fill="#384764"/>
<path d="M32.1661 14.5091C32.3388 14.5091 32.5117 14.4432 32.6435 14.3114L39.2634 7.69145C39.5271 7.42769 39.5271 7.00028 39.2634 6.73661C38.9997 6.47303 38.5722 6.47303 38.3087 6.73661L31.6887 13.3566C31.425 13.6203 31.425 14.0477 31.6887 14.3114C31.8205 14.4431 31.9933 14.5091 32.1661 14.5091Z" fill="#384764"/>
<path d="M13.3566 31.6887L6.73663 38.3086C6.47296 38.5724 6.47296 38.9998 6.73663 39.2635C6.86842 39.3953 7.04126 39.4612 7.214 39.4612C7.38675 39.4612 7.55959 39.3953 7.69138 39.2635L14.3113 32.6435C14.575 32.3798 14.575 31.9523 14.3113 31.6887C14.0477 31.4251 13.6202 31.4251 13.3566 31.6887Z" fill="#384764"/>
<path d="M13.3566 14.3113C13.4884 14.4431 13.6612 14.509 13.834 14.509C14.0067 14.509 14.1795 14.4431 14.3113 14.3113C14.575 14.0476 14.575 13.6201 14.3113 13.3565L7.69138 6.73653C7.42771 6.47295 7.00021 6.47295 6.73663 6.73653C6.47296 7.00029 6.47296 7.4277 6.73663 7.69137L13.3566 14.3113Z" fill="#384764"/>
<path d="M32.6435 31.6887C32.3798 31.4251 31.9523 31.4251 31.6887 31.6887C31.425 31.9524 31.425 32.3799 31.6887 32.6435L38.3087 39.2635C38.4405 39.3953 38.6133 39.4612 38.786 39.4612C38.9588 39.4612 39.1316 39.3953 39.2634 39.2635C39.5271 38.9997 39.5271 38.5723 39.2634 38.3086L32.6435 31.6887Z" fill="#384764"/>
</g>
<defs>
<clipPath id="clip0_4_88">
<rect width="46" height="46" fill="white"/>
</clipPath>
</defs>
</svg>
